<svg width="151" height="135" viewBox="0 0 151 135" fill="none" xmlns="http://www.w3.org/2000/svg">
<path d="M85.3284 65.1675C89.721 68.0612 92.8011 72.958 93.3619 78.642C95.1533 79.5215 97.1415 80.0272 99.2494 80.0272C106.945 80.0272 113.182 73.4737 113.182 65.3892C113.182 57.3035 106.945 50.75 99.2494 50.75C91.6274 50.7525 85.4446 57.1889 85.3284 65.1675ZM76.2007 95.1411C83.8962 95.1411 90.1335 88.5863 90.1335 80.5018C90.1335 72.4174 83.895 65.8638 76.2007 65.8638C68.5063 65.8638 62.2654 72.4186 62.2654 80.5031C62.2654 88.5876 68.5063 95.1411 76.2007 95.1411ZM82.1108 96.1389H70.2882C60.4515 96.1389 52.4489 104.548 52.4489 114.884V130.075L52.4856 130.313L53.4815 130.641C62.8689 133.722 71.0245 134.75 77.7372 134.75C90.8484 134.75 98.448 130.822 98.9163 130.572L99.8469 130.077H99.9465V114.884C99.9501 104.548 91.9475 96.1389 82.1108 96.1389ZM105.162 81.0263H93.4306C93.3038 85.9579 91.3001 90.3988 88.1311 93.5927C96.8747 96.3245 103.272 104.844 103.272 114.906V119.588C114.855 119.142 121.53 115.692 121.97 115.461L122.9 114.965H123V99.7688C123 89.4346 114.997 81.0263 105.162 81.0263ZM51.753 80.0297C54.4786 80.0297 57.0145 79.1939 59.1628 77.7701C59.8457 73.09 62.2334 69.0005 65.6443 66.2151C65.6586 65.9411 65.6835 65.6695 65.6835 65.393C65.6835 57.3073 59.445 50.7537 51.753 50.7537C44.0562 50.7537 37.8201 57.3073 37.8201 65.393C37.8201 73.475 44.0562 80.0297 51.753 80.0297ZM64.2655 93.5927C61.1119 90.415 59.1154 85.9978 58.9695 81.096C58.5344 81.0624 58.1041 81.0263 57.6607 81.0263H45.8393C36.0026 81.0263 28 89.4346 28 99.7688V114.962L28.0368 115.197L29.0326 115.527C36.5634 117.997 43.2844 119.135 49.1222 119.494V114.906C49.1245 104.844 55.5195 96.327 64.2655 93.5927Z" fill="white"/>
<path d="M144.708 12.8333V101.916L138.417 102.667V0C113.911 0.763583 91.1977 4.8895 75.4874 14.861C59.7834 4.8895 37.0957 0.763583 12.5833 0V102.667L6.29167 101.916V12.8333H0V109.083H56.9836C66.289 109.083 67.3083 115.5 75.4874 115.5C83.6917 115.5 84.6795 109.083 93.9975 109.083H151V12.8333H144.708ZM69.2083 100.389C56.9647 95.4351 43.1797 92.246 25.1667 90.8664V13.5392C39.9647 14.8033 56.5998 17.8704 69.2083 25.872V100.389ZM125.833 90.8664C107.82 92.246 94.0352 95.4351 81.7917 100.389V25.872C94.4002 17.8704 111.035 14.8033 125.833 13.5392V90.8664Z" fill="white"/>
</svg>
