<svg width="24" height="25" viewBox="0 0 24 25" fill="none" xmlns="http://www.w3.org/2000/svg">
    <path d="M20.3125 17.1875V21.875H3.125V17.1875H0V23.4375C0 24.3016 0.7 25 1.5625 25H21.875C22.7391 25 23.4375 24.3016 23.4375 23.4375V17.1875H20.3125Z" fill="black"/>
    <path d="M17.8984 11.3953C17.7718 11.1156 17.4937 10.9375 17.1875 10.9375H14.0625V0.78125C14.0625 0.35 13.7125 0 13.2812 0H10.1562C9.72497 0 9.37497 0.35 9.37497 0.78125V10.9375H6.24997C5.94372 10.9375 5.6656 11.1172 5.53904 11.3953C5.41091 11.675 5.46091 12.0016 5.66247 12.2328L11.1312 18.4828C11.2797 18.6531 11.4937 18.75 11.7187 18.75C11.9437 18.75 12.1578 18.6516 12.3062 18.4828L17.775 12.2328C17.9781 12.0031 18.025 11.675 17.8984 11.3953Z" fill="black"/>
</svg>