<svg width="30" height="30" viewBox="0 0 30 30" fill="none" xmlns="http://www.w3.org/2000/svg">
    <path d="M27.2392 22.6252H2.76076C1.2385 22.6252 0 24.2788 0 26.3139C0 28.3464 1.2385 30 2.76076 30H27.2392C28.7615 30 30 28.3464 30 26.3139C30 24.2788 28.7615 22.6252 27.2392 22.6252Z" fill="white"/>
    <path d="M27.2392 11.3126H2.76076C1.2385 11.3126 0 12.9662 0 15.0013C0 17.0338 1.2385 18.6874 2.76076 18.6874H27.2392C28.7615 18.6874 30 17.0338 30 15.0013C30 12.9662 28.7615 11.3126 27.2392 11.3126Z" fill="white"/>
    <path d="M27.2392 0H2.76076C1.2385 0 0 1.65355 0 3.68865C0 5.72116 1.2385 7.37479 2.76076 7.37479H27.2392C28.7615 7.37479 30 5.72116 30 3.68865C30 1.65355 28.7615 0 27.2392 0Z" fill="white"/>
</svg>