<svg width="30" height="30" viewBox="0 0 30 30" fill="none" xmlns="http://www.w3.org/2000/svg">
    <path d="M29.8936 25.3038L27.318 21.7263C26.1285 20.075 25.5 18.1838 25.5 16.2588V13.125C25.5 9.16875 22.3318 5.82252 17.9996 4.74375V2.50002C17.9996 1.12125 16.6541 0 14.9995 0C13.3449 0 11.9994 1.12125 11.9994 2.50002V4.74375C7.66723 5.82252 4.49911 9.16875 4.49911 13.125V16.2588C4.49911 18.1838 3.87056 20.0737 2.68251 21.725L0.106938 25.3025C-0.0325679 25.4963 -0.0355913 25.7363 0.0979373 25.9325C0.231466 26.1288 0.478976 26.2501 0.748986 26.2501H29.2501C29.5201 26.2501 29.7691 26.1288 29.9026 25.9338C30.0361 25.7388 30.0316 25.4963 29.8936 25.3038Z" fill="white"/>
    <path d="M10.2761 27.5C11.1222 28.9725 12.9132 30 14.9998 30C17.0863 30 18.8774 28.9725 19.7235 27.5H10.2761Z" fill="white"/>
</svg>