<svg width="30" height="30" viewBox="0 0 30 30" fill="none" xmlns="http://www.w3.org/2000/svg">
    <path d="M29.9273 23.0684C29.8787 22.4838 29.7805 21.8462 29.636 21.1728C29.49 20.4944 29.3021 19.8531 29.0771 19.2669C28.8448 18.6611 28.5287 18.0628 28.1381 17.4894C27.7326 16.8943 27.2563 16.3761 26.7219 15.9497C26.1631 15.5037 25.4789 15.145 24.6877 14.8834C23.8993 14.6232 23.0255 14.4913 22.0908 14.4913C21.7238 14.4913 21.3688 14.617 20.6832 14.9894C20.2613 15.2189 19.7677 15.4844 19.2169 15.7781C18.7458 16.0285 18.1077 16.2631 17.3195 16.4755C16.5506 16.6831 15.7698 16.7884 14.9992 16.7884C14.2286 16.7884 13.4481 16.6831 12.6783 16.4755C11.8909 16.2633 11.2528 16.0287 10.7823 15.7783C10.2367 15.4874 9.74285 15.2219 9.31461 14.9891C8.62986 14.6167 8.27459 14.4911 7.90753 14.4911C6.97258 14.4911 6.09909 14.6232 5.31092 14.8836C4.52027 15.1448 3.8358 15.5034 3.27642 15.95C2.74229 16.3766 2.26576 16.8946 1.86084 17.4894C1.47045 18.0628 1.15442 18.6608 0.921777 19.2671C0.697094 19.8533 0.509172 20.4944 0.363224 21.1728C0.218648 21.8452 0.120435 22.4831 0.0718767 23.0691C0.0241418 23.6431 0 24.2389 0 24.8406C0 26.4066 0.596686 27.6744 1.77332 28.6093C2.93542 29.5319 4.47309 30 6.34298 30H23.657C25.5269 30 27.064 29.5322 28.2264 28.6093C29.4033 27.675 30 26.407 30 24.8404C29.9997 24.2359 29.9753 23.6397 29.9273 23.0684Z" fill="white"/>
    <path d="M14.7732 14.451C17.1528 14.451 19.2133 13.739 20.8969 12.3341C22.5806 10.9295 23.434 9.21082 23.434 7.22529C23.434 5.24044 22.5806 3.52155 20.8967 2.11645C19.2128 0.712046 17.1525 0 14.7732 0C12.3933 0 10.3333 0.712046 8.64966 2.11668C6.96605 3.52132 6.1123 5.24021 6.1123 7.22529C6.1123 9.21082 6.96605 10.9297 8.64993 12.3343C10.3338 13.7388 12.3941 14.451 14.7732 14.451Z" fill="white"/>
</svg>